<svg xmlns="http://www.w3.org/2000/svg" width="18" height="19" viewBox="0 0 18 19">
    <g fill="none" fill-rule="evenodd">
        <g fill="#FFF" fill-rule="nonzero">
            <g>
                <path d="M244.363 128.188c1.403-.067 2.645-.387 3.668-1.415 1.024-1.023 1.344-2.265 1.414-3.668.038-.656.058-1.91.061-3.216v-.786c-.003-1.307-.023-2.56-.06-3.216-.067-1.403-.387-2.645-1.415-3.668-1.023-1.024-2.265-1.344-3.668-1.414-.657-.038-1.91-.058-3.218-.061h-.786c-1.308.003-2.561.023-3.218.06-1.399.067-2.641.387-3.668 1.41-1.028 1.024-1.344 2.266-1.414 3.669-.038.657-.058 1.91-.061 3.218v.787c.003 1.307.023 2.56.06 3.217.067 1.403.387 2.645 1.415 3.668 1.027 1.024 2.265 1.344 3.668 1.415 1.445.082 5.777.082 7.222 0zm-3.61-1.516c-1.273 0-4.01.101-5.16-.352-.765-.304-1.355-.894-1.663-1.664-.457-1.152-.352-3.886-.352-5.16 0-1.273-.101-4.012.352-5.16.304-.766.894-1.356 1.664-1.664 1.152-.457 3.886-.352 5.16-.352 1.273 0 4.012-.101 5.16.352.766.305 1.356.894 1.664 1.664.457 1.152.352 3.887.352 5.16 0 1.274.105 4.012-.352 5.16-.305.766-.894 1.356-1.664 1.664-1.152.457-3.887.352-5.16.352zm4.673-10.8c.578 0 1.047-.466 1.047-1.048 0-.578-.47-1.047-1.047-1.047-.578 0-1.047.47-1.047 1.047 0 .578.465 1.047 1.047 1.047zm-4.672 8.112c2.484 0 4.488-2.004 4.488-4.488 0-2.484-2.004-4.488-4.488-4.488-2.484 0-4.488 2.004-4.488 4.488 0 2.484 2.004 4.488 4.488 4.488zm0-1.57c-1.606 0-2.918-1.309-2.918-2.918 0-1.61 1.309-2.918 2.918-2.918 1.61 0 2.918 1.309 2.918 2.918 0 1.61-1.313 2.918-2.918 2.918z" transform="translate(-232 -1451) translate(0 1341)"/>
            </g>
        </g>
    </g>
</svg>
