<svg xmlns="http://www.w3.org/2000/svg" width="18" height="18" viewBox="0 0 18 18">
    <g fill="none" fill-rule="evenodd">
        <g fill="#FFF" fill-rule="nonzero">
            <g>
                <path d="M147.101 114.723c1.16 0 2.101-.961 2.101-2.121 0-1.16-.941-2.102-2.1-2.102-1.16 0-2.102.942-2.102 2.102s.941 2.12 2.101 2.12zM154.814 128v-5.785c0-1.524.29-2.996 2.175-2.996 1.797 0 1.883 1.624 1.887 2.957V128h3.624v-6.418c0-3.14-.675-5.559-4.347-5.559-1.765 0-2.948.97-3.433 1.887h-.05v-1.594h-3.48V128h3.624zm-5.897 0v-11.684h-3.628V128h3.628z" transform="translate(-145 -1451) translate(0 1341)"/>
            </g>
        </g>
    </g>
</svg>
