<svg xmlns="http://www.w3.org/2000/svg" width="22" height="15" viewBox="0 0 22 15">
    <g fill="none" fill-rule="evenodd">
        <g fill="#FFF" fill-rule="nonzero">
            <g>
                <path d="M205.585 127.551c.918-.247 1.64-.944 1.886-1.868.144-.54.241-1.27.307-2.01l.036-.444c.086-1.18.1-2.297.102-2.62v-.187c-.002-.323-.016-1.44-.102-2.62l-.036-.445c-.066-.74-.163-1.47-.307-2.01-.246-.924-.968-1.651-1.886-1.898-1.475-.398-6.884-.443-8.094-.448h-.482c-1.21.005-6.62.05-8.094.448-.918.247-1.64.974-1.886 1.898-.144.54-.241 1.27-.307 2.01l-.036.444c-.086 1.18-.1 2.297-.102 2.62v.188c.002.323.016 1.44.102 2.62l.036.444c.066.74.163 1.47.307 2.01.245.924.968 1.621 1.886 1.868 1.475.398 6.883.443 8.094.448h.482c1.21-.005 6.62-.05 8.094-.448zm-10.517-3.864v-6.344l5.576 3.172-5.576 3.172z" transform="translate(-186 -1454) translate(0 1341)"/>
            </g>
        </g>
    </g>
</svg>
