<?xml version="1.0" encoding="UTF-8"?>
<svg width="439px" height="63px" viewBox="0 0 439 63" version="1.1" xmlns="http://www.w3.org/2000/svg" xmlns:xlink="http://www.w3.org/1999/xlink">
    <title>collaborate-purple</title>
    <defs>
        <path d="M188.723356,0 L188.723356,60.6862625 L202.647887,60.6862625 L202.647887,59.24305 C202.647887,57.8848938 202.565575,56.7819062 202.565575,56.7819062 L202.735687,56.7819062 C202.735687,56.7819062 206.686687,61.7041938 214.857575,61.7041938 C226.63375,61.7041938 235.490575,52.7046937 235.490575,38.87345 C235.490575,25.2918875 227.580344,15.9549062 215.543513,15.9549062 C207.721081,15.9549062 203.594481,20.6247688 203.594481,20.6247688 L203.424369,20.6247688 C203.424369,20.6247688 203.594481,19.0965 203.594481,16.8877813 L203.594481,0 L188.723356,0 Z M203.163713,39.125875 C203.163713,31.5723312 207.378112,28.3456812 211.847681,28.3456812 C217.005931,28.3456812 220.53165,32.5902625 220.53165,39.125875 C220.53165,45.8316 216.490106,49.5658437 211.847681,49.5658437 C206.003494,49.5658437 203.163713,44.3883875 203.163713,39.125875 L203.163713,39.125875 Z M118.656212,0 L118.656212,44.5585 C118.656212,59.24305 127.079525,61.1088 134.989756,61.1088 C137.396025,61.1088 139.462069,60.8536312 139.462069,60.8536312 L139.462069,48.1226313 C139.462069,48.1226313 138.600531,48.2076875 137.653937,48.2076875 C134.301075,48.2076875 133.530081,46.764475 133.530081,42.6076937 L133.530081,0 L118.656212,0 L118.656212,0 Z M95.0050875,0 L95.0050875,44.5585 C95.0050875,59.24305 103.431144,61.1088 111.341375,61.1088 C113.747644,61.1088 115.813688,60.8536312 115.813688,60.8536312 L115.813688,48.1226313 C115.813688,48.1226313 114.95215,48.2076875 114.005556,48.2076875 C110.652694,48.2076875 109.878956,46.764475 109.878956,42.6076937 L109.878956,0 L95.0078312,0 L95.0050875,0 Z M369.188025,5.17745625 L369.188025,17.7383437 L363.085925,17.7383437 L363.085925,29.1962438 L368.76,29.1962438 L368.76,44.5612437 C368.76,59.2403063 382.429363,61.1088 389.475312,61.1088 C391.884325,61.1088 393.516856,60.8536312 393.516856,60.8536312 L393.516856,48.1226312 C393.516856,48.1226312 392.743119,48.2076875 391.541356,48.2076875 C388.704319,48.2076875 383.631125,47.5299812 383.631125,42.6076937 L383.631125,29.1935 L392.915975,29.1935 L392.915975,17.7383437 L383.631125,17.7383437 L383.631125,5.17745625 L369.188025,5.17745625 L369.188025,5.17745625 Z M395.500587,38.7883937 C395.500587,50.4136625 404.008956,61.7041937 419.826675,61.7041937 C431.605594,61.7041937 438.742088,55.3386937 438.742088,55.3386937 L433.240869,45.0688375 C433.240869,45.0688375 427.393937,49.4807875 421.031181,49.4807875 C416.3037,49.4807875 411.831388,47.0196438 410.714681,41.672075 L438.654287,41.672075 C438.654287,41.672075 439,38.533225 439,37.0900125 C439,24.9516625 431.605594,15.9549063 418.537112,15.9549063 C404.266869,15.9549063 395.497844,25.9695937 395.497844,38.78565 L395.500587,38.7883937 Z M418.1914,26.9902687 C421.719862,26.9902687 424.041075,29.9590063 424.041075,33.2707125 L411.05765,33.2707125 C411.831388,30.0440625 413.894687,26.987525 418.1914,26.987525 L418.1914,26.9902687 Z M321.2163,21.6399562 L326.37455,31.9976125 C326.37455,31.9976125 332.734562,27.8380875 338.320837,27.8380875 C342.019412,27.8380875 344.85645,29.0261313 344.85645,32.6753188 L344.85645,33.440825 L344.252825,33.440825 C337.376988,33.440825 318.549375,34.8840375 318.549375,47.6150375 C318.549375,56.2715688 325.340156,61.7041938 333.593356,61.7041938 C342.878206,61.7041938 346.146013,55.3386938 346.146013,55.3386938 L346.318869,55.3386938 C346.318869,55.3386938 346.146013,56.6117937 346.146013,58.0550062 L346.146013,60.6862625 L359.727575,60.6862625 L359.727575,33.7755625 C359.727575,22.6578875 352.250856,15.9521625 339.786,15.9521625 C328.865875,15.9521625 321.2163,21.6399562 321.2163,21.6399562 Z M333.5083,46.8495312 C333.5083,43.2003438 338.924463,41.8421875 343.651944,41.8421875 L345.029306,41.8421875 L345.029306,42.7750625 C345.029306,46.3419375 341.588644,50.4987188 337.719956,50.4987188 C334.797863,50.4987188 333.5083,48.8881375 333.5083,46.8495312 L333.5083,46.8495312 Z M145.204737,21.6427 L150.362988,31.9976125 C150.362988,31.9976125 156.723,27.8380875 162.312019,27.8380875 C166.00785,27.8380875 168.844887,29.0261313 168.844887,32.6753188 L168.844887,33.440825 L168.244006,33.440825 C161.365425,33.440825 142.537813,34.8840375 142.537813,47.6150375 C142.537813,56.2715688 149.331337,61.7041938 157.581794,61.7041938 C166.869387,61.7041938 170.137194,55.3386938 170.137194,55.3386938 L170.307306,55.3386938 C170.307306,55.3386938 170.137194,56.6117937 170.137194,58.0550062 L170.137194,60.6862625 L183.718756,60.6862625 L183.718756,33.7755625 C183.718756,22.6578875 176.239294,15.9521625 163.771694,15.9521625 C152.857056,15.9521625 145.204737,21.6399562 145.204737,21.6399562 L145.204737,21.6427 Z M157.496737,46.8495312 C157.496737,43.2003438 162.9129,41.8421875 167.643125,41.8421875 L169.017744,41.8421875 L169.017744,42.7750625 C169.017744,46.3419375 165.579825,50.4987188 161.711138,50.4987188 C158.7863,50.4987188 157.496737,48.8881375 157.496737,46.8495312 L157.496737,46.8495312 Z M0,38.78565 C0,50.8389437 8.85408125,61.7041937 24.6718,61.7041937 C37.0543438,61.7041937 43.6722688,54.4881312 43.6722688,54.4881312 L38.2561062,44.218275 C38.2561062,44.218275 32.3241187,49.4807875 26.1342188,49.4807875 C18.6547563,49.4807875 15.0439812,43.7957375 15.0439812,38.6155375 C15.0439812,33.440825 18.5697,28.1783125 25.6183938,28.1783125 C31.7232375,28.1783125 36.01995,32.42015 36.01995,32.42015 L42.29765,22.575575 C42.29765,22.575575 36.711375,15.9549063 24.6718,15.9549063 C8.769025,15.9549063 0,27.075325 0,38.78565 Z M303.6563,24.8035 C303.285894,25.538825 302.97585,26.2988437 302.728912,27.0780687 L302.556056,27.0780687 C302.556056,27.0780687 302.728912,25.8049687 302.728912,24.3617562 L302.728912,16.9755813 L288.455925,16.9755813 L288.455925,60.6835187 L303.329794,60.6835187 L303.329794,44.1359625 C303.329794,41.7571313 303.587706,39.806325 304.103531,38.193 C306.251887,31.6573875 312.013762,30.5544 315.536737,30.5544 C317.344869,30.5544 318.546631,30.806825 318.546631,30.806825 L318.546631,16.3801875 C318.546631,16.3801875 317.687838,16.210075 316.829044,16.210075 C311.0754,16.210075 306.100981,19.9278562 303.6563,24.8007562 L303.6563,24.8035 Z M302.728912,23.1709688 L303.6563,24.8035 L302.728912,23.1709688 Z" id="path-1"></path>
        <path d="M0,7.0294875 C0,10.90915 3.18549375,14.0562313 7.12003125,14.0562313 L7.12003125,9.85829375 C5.5259125,9.85829375 4.23909375,8.5879375 4.23909375,7.0294875 C4.23909375,5.46555 5.5259125,4.1979375 7.12003125,4.1979375 C8.71140625,4.1979375 9.998225,5.46829375 9.998225,7.0294875 L14.2373223,7.0294875 C14.2400625,3.14708125 11.051825,0 7.12003125,0 C3.18549375,0 0,3.14708125 0,7.0294875 Z" id="path-3"></path>
        <path d="M0,23.2807188 C0,36.1379313 10.55795,46.5641813 23.5825313,46.5641813 C36.6071125,46.5641813 47.1650625,36.1379313 47.1650625,23.2807188 C47.1650625,10.42625 36.6071125,0 23.5825313,0 C10.55795,0 0,10.4235063 0,23.2807188 Z M12.5416813,23.2807188 C12.5416813,17.2883688 17.4804313,12.4154688 23.5825313,12.4154688 C29.687375,12.4154688 34.6206375,17.2883688 34.6206375,23.2807188 C34.6206375,29.2758125 29.687375,34.1459688 23.5825313,34.1459688 C17.4776875,34.1459688 12.5416813,29.2758125 12.5416813,23.2807188 Z" id="path-5"></path>
        <path d="M0,23.2807187 L12.544425,23.2807187 C12.544425,17.2883688 17.4776875,12.4154687 23.5825312,12.4154687 C29.687375,12.4154687 34.6206375,17.2883688 34.6206375,23.2807187 C34.6206375,29.2730688 29.687375,34.1459687 23.5825312,34.1459687 L23.5825312,46.5641812 C36.6071125,46.5641812 47.1650625,36.1379312 47.1650625,23.2807187 C47.1650625,10.42625 36.6071125,0 23.5825312,0 C10.55795,0 0,10.4235062 0,23.2807187 Z" id="path-7"></path>
    </defs>
    <g id="Page-1" stroke="none" stroke-width="1" fill="none" fill-rule="evenodd">
        <g id="collaborate-purple">
            <g id="Path-Clipped">
                <mask id="mask-2" fill="white">
                    <use xlink:href="#path-1"></use>
                </mask>
                <g id="path-1"></g>
                <polygon id="Path" fill="#665CFF" fill-rule="nonzero" mask="url(#mask-2)" points="-3.66565 65.3698438 442.66565 65.3698438 442.66565 -3.66839375 -3.66565 -3.66839375"></polygon>
            </g>
            <g id="Path-Clipped" transform="translate(253.034112, 31.553125)">
                <mask id="mask-4" fill="white">
                    <use xlink:href="#path-3"></use>
                </mask>
                <g id="path-3"></g>
                <polygon id="Path" fill="#665CFF" fill-rule="nonzero" mask="url(#mask-4)" points="-3.66565 17.7218813 17.9029687 17.7218813 17.9029687 -3.66565 -3.66565 -3.66565"></polygon>
            </g>
            <g id="Path-Clipped" transform="translate(43.735375, 15.301894)">
                <mask id="mask-6" fill="white">
                    <use xlink:href="#path-5"></use>
                </mask>
                <g id="path-5"></g>
                <polygon id="Path" fill="#665CFF" fill-rule="nonzero" mask="url(#mask-6)" points="-3.66565 50.2298312 50.8307125 50.2298312 50.8307125 -3.66565 -3.66565 -3.66565"></polygon>
            </g>
            <g id="Path-Clipped" transform="translate(237.169750, 15.889056)">
                <mask id="mask-8" fill="white">
                    <use xlink:href="#path-7"></use>
                </mask>
                <g id="path-7"></g>
                <polygon id="Path" fill="#665CFF" fill-rule="nonzero" mask="url(#mask-8)" points="-3.66565 50.2298312 50.8307125 50.2298312 50.8307125 -3.66565 -3.66565 -3.66565"></polygon>
            </g>
        </g>
    </g>
</svg>