<?xml version="1.0" encoding="UTF-8"?>
<svg width="200px" height="28px" viewBox="0 0 160 23" version="1.1" xmlns="http://www.w3.org/2000/svg" xmlns:xlink="http://www.w3.org/1999/xlink">
    <!-- Generator: Sketch 63.1 (92452) - https://sketch.com -->
    <title>collaborate</title>
    <desc>Created with Sketch.</desc>
    <defs>
        <path d="M68.783,0 L68.783,22.118 L73.858,22.118 L73.858,21.592 C73.858,21.097 73.828,20.695 73.828,20.695 L73.89,20.695 C73.89,20.695 75.33,22.489 78.308,22.489 C82.6,22.489 85.828,19.209 85.828,14.168 C85.828,9.218 82.945,5.815 78.558,5.815 C75.707,5.815 74.203,7.517 74.203,7.517 L74.141,7.517 C74.141,7.517 74.203,6.96 74.203,6.155 L74.203,0 L68.783,0 Z M74.046,14.26 C74.046,11.507 75.582,10.331 77.211,10.331 C79.091,10.331 80.376,11.878 80.376,14.26 C80.376,16.704 78.903,18.065 77.211,18.065 C75.081,18.065 74.046,16.178 74.046,14.26 L74.046,14.26 Z M43.246,0 L43.246,16.24 C43.246,21.592 46.316,22.272 49.199,22.272 C50.076,22.272 50.829,22.179 50.829,22.179 L50.829,17.539 C50.829,17.539 50.515,17.57 50.17,17.57 C48.948,17.57 48.667,17.044 48.667,15.529 L48.667,0 L43.246,0 L43.246,0 Z M34.626,0 L34.626,16.24 C34.626,21.592 37.697,22.272 40.58,22.272 C41.457,22.272 42.21,22.179 42.21,22.179 L42.21,17.539 C42.21,17.539 41.896,17.57 41.551,17.57 C40.329,17.57 40.047,17.044 40.047,15.529 L40.047,0 L34.627,0 L34.626,0 Z M134.556,1.887 L134.556,6.465 L132.332,6.465 L132.332,10.641 L134.4,10.641 L134.4,16.241 C134.4,21.591 139.382,22.272 141.95,22.272 C142.828,22.272 143.423,22.179 143.423,22.179 L143.423,17.539 C143.423,17.539 143.141,17.57 142.703,17.57 C141.669,17.57 139.82,17.323 139.82,15.529 L139.82,10.64 L143.204,10.64 L143.204,6.465 L139.82,6.465 L139.82,1.887 L134.556,1.887 L134.556,1.887 Z M144.146,14.137 C144.146,18.374 147.247,22.489 153.012,22.489 C157.305,22.489 159.906,20.169 159.906,20.169 L157.901,16.426 C157.901,16.426 155.77,18.034 153.451,18.034 C151.728,18.034 150.098,17.137 149.691,15.188 L159.874,15.188 C159.874,15.188 160,14.044 160,13.518 C160,9.094 157.305,5.815 152.542,5.815 C147.341,5.815 144.145,9.465 144.145,14.136 L144.146,14.137 Z M152.416,9.837 C153.702,9.837 154.548,10.919 154.548,12.126 L149.816,12.126 C150.098,10.95 150.85,9.836 152.416,9.836 L152.416,9.837 Z M117.072,7.887 L118.952,11.662 C118.952,11.662 121.27,10.146 123.306,10.146 C124.654,10.146 125.688,10.579 125.688,11.909 L125.688,12.188 L125.468,12.188 C122.962,12.188 116.1,12.714 116.1,17.354 C116.1,20.509 118.575,22.489 121.583,22.489 C124.967,22.489 126.158,20.169 126.158,20.169 L126.221,20.169 C126.221,20.169 126.158,20.633 126.158,21.159 L126.158,22.118 L131.108,22.118 L131.108,12.31 C131.108,8.258 128.383,5.814 123.84,5.814 C119.86,5.814 117.072,7.887 117.072,7.887 Z M121.552,17.075 C121.552,15.745 123.526,15.25 125.249,15.25 L125.751,15.25 L125.751,15.59 C125.751,16.89 124.497,18.405 123.087,18.405 C122.022,18.405 121.552,17.818 121.552,17.075 L121.552,17.075 Z M52.922,7.888 L54.802,11.662 C54.802,11.662 57.12,10.146 59.157,10.146 C60.504,10.146 61.538,10.579 61.538,11.909 L61.538,12.188 L61.319,12.188 C58.812,12.188 51.95,12.714 51.95,17.354 C51.95,20.509 54.426,22.489 57.433,22.489 C60.818,22.489 62.009,20.169 62.009,20.169 L62.071,20.169 C62.071,20.169 62.009,20.633 62.009,21.159 L62.009,22.118 L66.959,22.118 L66.959,12.31 C66.959,8.258 64.233,5.814 59.689,5.814 C55.711,5.814 52.922,7.887 52.922,7.887 L52.922,7.888 Z M57.402,17.075 C57.402,15.745 59.376,15.25 61.1,15.25 L61.601,15.25 L61.601,15.59 C61.601,16.89 60.348,18.405 58.938,18.405 C57.872,18.405 57.402,17.818 57.402,17.075 L57.402,17.075 Z M0,14.136 C0,18.529 3.227,22.489 8.992,22.489 C13.505,22.489 15.917,19.859 15.917,19.859 L13.943,16.116 C13.943,16.116 11.781,18.034 9.525,18.034 C6.799,18.034 5.483,15.962 5.483,14.074 C5.483,12.188 6.768,10.27 9.337,10.27 C11.562,10.27 13.128,11.816 13.128,11.816 L15.416,8.228 C15.416,8.228 13.38,5.815 8.992,5.815 C3.196,5.815 0,9.868 0,14.136 Z M110.672,9.04 C110.537,9.308 110.424,9.585 110.334,9.869 L110.271,9.869 C110.271,9.869 110.334,9.405 110.334,8.879 L110.334,6.187 L105.132,6.187 L105.132,22.117 L110.553,22.117 L110.553,16.086 C110.553,15.219 110.647,14.508 110.835,13.92 C111.618,11.538 113.718,11.136 115.002,11.136 C115.661,11.136 116.099,11.228 116.099,11.228 L116.099,5.97 C116.099,5.97 115.786,5.908 115.473,5.908 C113.376,5.908 111.563,7.263 110.672,9.039 L110.672,9.04 Z M110.334,8.445 L110.672,9.04 L110.334,8.445 Z" id="path-1"></path>
        <path d="M0,2.562 C0,3.976 1.161,5.123 2.595,5.123 L2.595,3.593 C2.014,3.593 1.545,3.13 1.545,2.562 C1.545,1.992 2.014,1.53 2.595,1.53 C3.175,1.53 3.644,1.993 3.644,2.562 L5.18900064,2.562 C5.19,1.147 4.028,0 2.595,0 C1.161,0 0,1.147 0,2.562 Z" id="path-3"></path>
        <path d="M0,8.485 C0,13.171 3.848,16.971 8.595,16.971 C13.342,16.971 17.19,13.171 17.19,8.485 C17.19,3.8 13.342,0 8.595,0 C3.848,0 0,3.799 0,8.485 Z M4.571,8.485 C4.571,6.301 6.371,4.525 8.595,4.525 C10.82,4.525 12.618,6.301 12.618,8.485 C12.618,10.67 10.82,12.445 8.595,12.445 C6.37,12.445 4.571,10.67 4.571,8.485 Z" id="path-5"></path>
        <path d="M0,8.485 L4.572,8.485 C4.572,6.301 6.37,4.525 8.595,4.525 C10.82,4.525 12.618,6.301 12.618,8.485 C12.618,10.669 10.82,12.445 8.595,12.445 L8.595,16.971 C13.342,16.971 17.19,13.171 17.19,8.485 C17.19,3.8 13.342,0 8.595,0 C3.848,0 0,3.799 0,8.485 Z" id="path-7"></path>
    </defs>
    <g id="Page-1" stroke="none" stroke-width="1" fill="none" fill-rule="evenodd">
        <g id="collaborate">
            <g id="Group">
                <g id="Clipped">
                    <mask id="mask-2" fill="white">
                        <use xlink:href="#path-1"></use>
                    </mask>
                    <g id="1i7xlj5via"></g>
                    <polygon id="Path" fill="#FFFFFF" fill-rule="nonzero" mask="url(#mask-2)" points="-1.336 23.825 161.336 23.825 161.336 -1.337 -1.336 -1.337"></polygon>
                </g>
            </g>
            <g id="Group" transform="translate(92.222000, 11.500000)">
                <g id="Clipped">
                    <mask id="mask-4" fill="white">
                        <use xlink:href="#path-3"></use>
                    </mask>
                    <g id="0fyennx1yc"></g>
                    <polygon id="Path" fill="#FFFFFF" fill-rule="nonzero" mask="url(#mask-4)" points="-1.336 6.459 6.525 6.459 6.525 -1.336 -1.336 -1.336"></polygon>
                </g>
            </g>
            <g id="Group" transform="translate(15.940000, 5.577000)">
                <g id="Clipped">
                    <mask id="mask-6" fill="white">
                        <use xlink:href="#path-5"></use>
                    </mask>
                    <g id="71pwt96x9e"></g>
                    <polygon id="Path" fill="#FFFFFF" fill-rule="nonzero" mask="url(#mask-6)" points="-1.336 18.307 18.526 18.307 18.526 -1.336 -1.336 -1.336"></polygon>
                </g>
            </g>
            <g id="Group" transform="translate(86.440000, 5.791000)">
                <g id="Clipped">
                    <mask id="mask-8" fill="white">
                        <use xlink:href="#path-7"></use>
                    </mask>
                    <g id="9lgz363u0g"></g>
                    <polygon id="Path" fill="#FFFFFF" fill-rule="nonzero" mask="url(#mask-8)" points="-1.336 18.307 18.526 18.307 18.526 -1.336 -1.336 -1.336"></polygon>
                </g>
            </g>
        </g>
    </g>
</svg>