<svg xmlns="http://www.w3.org/2000/svg" width="19" height="19" viewBox="0 0 19 19">
    <g fill="none" fill-rule="evenodd">
        <g fill="#FFF" fill-rule="nonzero">
            <g>
                <path d="M286.691 43.862l6.059-6.06 6.059 6.06c.35.35.92.35 1.27 0l1.408-1.408c.35-.35.35-.92 0-1.27l-6.06-6.06 6.06-6.058c.35-.35.35-.92 0-1.27l-1.408-1.408c-.35-.35-.92-.35-1.27 0l-6.06 6.06-6.058-6.06c-.35-.35-.92-.35-1.27 0l-1.408 1.408c-.35.35-.35.919 0 1.27l6.06 6.059-6.06 6.06c-.35.35-.35.918 0 1.27l1.408 1.407c.35.35.92.35 1.27 0z" transform="translate(-363 -2468) translate(80 2442)"/>
            </g>
        </g>
    </g>
</svg>
