<svg xmlns="http://www.w3.org/2000/svg" width="23" height="20" viewBox="0 0 23 20">
    <g fill="none" fill-rule="evenodd">
        <g fill="#FFF" fill-rule="nonzero">
            <g>
                <path d="M301.39 28.547c.337 0 .61-.273.61-.61v-1.624c0-.337-.273-.61-.61-.61h-21.53c-.337 0-.61.273-.61.61v1.625c0 .336.273.609.61.609h21.53zm0 8.125c.337 0 .61-.273.61-.61v-1.624c0-.337-.273-.61-.61-.61h-21.53c-.337 0-.61.273-.61.61v1.625c0 .336.273.609.61.609h21.53zm0 8.125c.337 0 .61-.273.61-.61v-1.624c0-.337-.273-.61-.61-.61h-21.53c-.337 0-.61.273-.61.61v1.625c0 .336.273.609.61.609h21.53z" transform="translate(-359 -2291) translate(80 2266)"/>
            </g>
        </g>
    </g>
</svg>
